<svg xmlns="http://www.w3.org/2000/svg" xmlns:xlink="http://www.w3.org/1999/xlink" version="1.1" x="0px" y="0px" viewBox="0 0 100 125" enable-background="new 0 0 100 100" xml:space="preserve"><g><path fill-rule="evenodd" clip-rule="evenodd" d="M85.569,52.916c0.142-11.257,1.993-20.497,0.766-31.799   c-0.42-3.871-2.932-8.854-8.072-9.217c-3.33-0.234-6.66-0.583-9.994-0.631c-6.571-0.093-25.6-0.655-28.534-0.535   c-5.375,0.221-10.778-0.021-16.122,0.72c-3.849,0.533-9.062,5.452-9.511,8.811c-1.562,11.681-2.026,22.386-1.127,34.157   c0.441,5.784,0.768,11.61,0.571,17.398c-0.112,3.289,0.065,6.354,1.413,9.312c2.213,4.855,4.652,6.069,10.336,5.632   c2.46-0.732,4.784-0.56,7.21-0.425c6.834,0.379,13.639,1.279,20.526,0.689c4.314-0.37,8.669-0.264,12.997,0.179   c2.902,0.298,7.774-0.296,10.612-0.426c3.845-0.177,6.402-1.618,8.493-4.947c2.592-4.127,1.044-8.991,0.936-13.615   C85.949,63.119,85.505,58.036,85.569,52.916z M83.449,77.203c-0.769,2.868-3.659,5.554-6.66,5.945   c-0.207,0.027-8.977,0.977-13.156,1.075c-3.276,0.077-6.566-0.167-9.85,0.075c-9.62,0.709-16.823-0.369-23.874-0.988   c-2.582-0.226-6.71,0.917-8.985-0.851c-1.764-1.371-3.273-2.916-3.854-5.076c-1.099-4.089-0.878-10.033-0.793-14.364   c0.245-12.454-1.36-23.868-0.916-36.331c0.083-2.332,3.607-10.208,5.347-11.114c2.842-1.478,5.903-1.603,8.951-1.824   c2.509-0.182,5.034-0.167,7.552-0.203c10.771-0.156,21.542,0.659,32.313,0.54c1.652-0.018,10.851,1.699,11.752,3.666   c1.715,3.742,3.024,7.559,3.032,11.76c0.023,13.569-0.554,25.156-0.83,38.718C83.415,71.222,84.255,74.196,83.449,77.203z"/><path fill-rule="evenodd" clip-rule="evenodd" d="M73.358,67.417c-0.867-7.299-6.007-11.078-13.025-13.167   c-7.13-2.122-15.848-2.007-22.583,1.083c-6.582,3.021-10.1,7.512-10.875,15.447c-0.038,0.386-2.125,5.47,4.39,5.487   c7.992,0.585,15.996,0.37,23.996,0.857c5.496-0.02,10.933-1.043,16.384-1.46c1.773-0.136,1.865-1.786,1.605-3.582   C72.996,70.334,73.576,69.249,73.358,67.417z M68.75,73.167c-4.038,0.243-7.297,0.433-11.333,0.702   c-4.816,0.322-10.79-0.104-14.63,0.147c-5.055,0.206-8.989-1.003-13.027-1.219c-0.82-0.043-0.842-3.88-0.092-5.38   c2.721-4.873,6.059-8.663,11.437-10.368c7.987-2.533,15.735-1.604,22.936,2.583c3.848,2.236,6.172,4.711,6.449,9.387   C70.59,70.749,70.252,73.076,68.75,73.167z"/><path fill-rule="evenodd" clip-rule="evenodd" d="M44.307,49.987c6.123,1.741,12.993,1.447,16.15-4.519   c1.203-2.274,2.343-4.535,2.064-6.756c0.525-8.559-6.062-15.476-13.133-14.022c-5.554,1.142-9.787,4.311-12.244,9.57   c-0.511,1.093-0.838,2.242-0.9,3.469C35.94,43.672,39.047,48.491,44.307,49.987z M42.502,32.475   c2.327-2.206,5.157-3.145,8.515-3.142c3.38,0.132,6.585,0.902,8.268,4.544c0.626,1.354,1.698,3.735,1.315,5.149   c-0.185,0.682-0.468,1.336-0.666,2.015c-2.512,8.619-8.784,7.774-16.581,4.247C38.508,43.097,38.378,36.386,42.502,32.475z"/></g></svg>